<svg width="19" height="21" viewBox="0 0 19 21" fill="none" xmlns="http://www.w3.org/2000/svg">
<path d="M10.1723 20.5269C9.57999 21.1578 8.61808 21.1578 8.02577 20.5269L0.444231 12.4509C-0.148077 11.82 -0.148077 10.7953 0.444231 10.1644C1.03654 9.53345 1.99845 9.53345 2.59076 10.1644L9.10141 17.0997L15.6121 10.1694C16.2044 9.5385 17.1663 9.5385 17.7586 10.1694C18.3509 10.8004 18.3509 11.825 17.7586 12.456L10.177 20.5319L10.1723 20.5269ZM17.7538 2.75972L10.1723 10.8357C9.57999 11.4666 8.61808 11.4666 8.02577 10.8357L0.444231 2.75972C-0.148077 2.12878 -0.148077 1.10414 0.444231 0.473203C1.03654 -0.157734 1.99845 -0.157734 2.59076 0.473203L9.10141 7.40846L15.6121 0.47825C16.2044 -0.152687 17.1663 -0.152687 17.7586 0.47825C18.3509 1.10919 18.3509 2.13383 17.7586 2.76476L17.7538 2.75972Z" fill="#0099A8"/>
</svg>
